<?xml version="1.0" encoding="utf-8"?>
<!-- Generator: Adobe Illustrator 16.0.0, SVG Export Plug-In . SVG Version: 6.00 Build 0)  -->
<!DOCTYPE svg PUBLIC "-//W3C//DTD SVG 1.1//EN" "http://www.w3.org/Graphics/SVG/1.1/DTD/svg11.dtd">
<svg version="1.1" id="Layer_1" xmlns="http://www.w3.org/2000/svg" xmlns:xlink="http://www.w3.org/1999/xlink" x="0px" y="0px"
	 width="30px" height="30px" viewBox="0 0 30 30" style="enable-background:new 0 0 30 30;" xml:space="preserve">
<style type="text/css">
<![CDATA[
	.st0{fill:#4F606C;}
	.st1{enable-background:new    ;}
	.st2{clip-path:url(#SVGID_2_);}
	.st3{clip-path:url(#SVGID_4_);}
	.st4{fill:#FFFFFF;}
	.st5{fill:none;}
	.st6{clip-path:url(#SVGID_6_);fill:#4F606C;}
]]>
</style>
<g>
	<path class="st0" d="M10.854,4.707c0,0.049,0,0.098,0,0.138v3.682c0,2.362,1.928,4.291,4.29,4.291c2.364,0,4.294-1.929,4.294-4.291
		V4.845c0-0.04,0-0.089,0-0.138h0.6l0.914-1.685C19.77,1.099,17.324,0,15.062,0c-2.261,0-4.702,1.099-5.888,3.022l0.922,1.685
		H10.854z M12.078,4.845c0-0.04,0-0.089,0-0.138h6.133c0,0.049,0,0.098,0,0.138v0.243h-6.133V4.845z M12.078,6.216
		c0.732,0.532,1.797,0.894,2.983,0.894c1.202,0,2.271-0.371,3.009-0.908c0.049-0.039,0.092-0.068,0.141-0.107v1.201v1.231
		c0,1.688-1.377,3.065-3.067,3.065c-1.688,0-3.065-1.377-3.065-3.065V6.216z"/>
	<path class="st0" d="M21.029,13.955c-0.396-0.239-0.801-0.522-1.158-0.766c-0.248-0.177-0.557-0.147-0.766,0.033
		c-1.107,0.942-2.525,1.466-3.989,1.466c-1.44,0-2.856-0.523-3.995-1.466c-0.211-0.181-0.518-0.181-0.762-0.033
		c-0.371,0.272-0.775,0.526-1.166,0.766c-1.508,0.981-3.248,2.139-3.248,4.38v8.589c0,0.342,0.27,0.616,0.615,0.616h2.451v1.835
		C9.012,29.722,9.285,30,9.623,30h11.039c0.348,0,0.615-0.278,0.615-0.625V27.54h2.457c0.326,0,0.609-0.274,0.609-0.616v-8.589
		C24.344,16.094,22.596,14.937,21.029,13.955z M20.229,20.721H15.14c-0.174,0-0.318-0.455-0.318-1.021
		c0-0.55,0.145-1.003,0.318-1.003h5.089c0.197,0,0.342,0.453,0.342,1.003C20.57,20.266,20.426,20.721,20.229,20.721z"/>
</g>
</svg>
