<?xml version="1.0" encoding="utf-8"?>
<!-- Generator: Adobe Illustrator 16.0.0, SVG Export Plug-In . SVG Version: 6.00 Build 0)  -->
<!DOCTYPE svg PUBLIC "-//W3C//DTD SVG 1.1//EN" "http://www.w3.org/Graphics/SVG/1.1/DTD/svg11.dtd">
<svg version="1.1" id="Layer_1" xmlns="http://www.w3.org/2000/svg" xmlns:xlink="http://www.w3.org/1999/xlink" x="0px" y="0px"
	 width="30px" height="30px" viewBox="0 0 30 30" style="enable-background:new 0 0 30 30;" xml:space="preserve">
<style type="text/css">
<![CDATA[
	.st0{fill:#4F606C;}
	.st1{enable-background:new    ;}
	.st2{clip-path:url(#SVGID_2_);}
	.st3{clip-path:url(#SVGID_4_);}
	.st4{fill:#FFFFFF;}
	.st5{fill:none;}
	.st6{clip-path:url(#SVGID_6_);fill:#4F606C;}
]]>
</style>
<g>
	<path class="st0" d="M22.634,21.999c-0.585-0.463-1-1.13-1-1.13s-1.217-2.506-1.972-2.624c-0.979-0.155-2.758-0.255-4.733-0.255
		c-1.975,0-3.752,0.1-4.732,0.255c-0.759,0.118-1.968,2.624-1.968,2.624s-0.415,0.667-1.004,1.13
		c-1.294,0.775-1.46,2.514-1.348,4.002c-0.015,0.293-0.027,0.611-0.027,0.968C5.848,28.64,6.072,30,6.353,30H8.44
		c0.13,0,0.255-0.32,0.347-0.829c1.266,0.088,3.178,0.141,6.142,0.141c1.477,0,2.703-0.014,3.707-0.041
		c1.005-0.02,1.803-0.047,2.434-0.1C21.163,29.68,21.281,30,21.418,30h2.085c0.28,0,0.508-1.36,0.508-3.031
		c0-0.356-0.016-0.675-0.034-0.968C24.092,24.513,23.927,22.774,22.634,21.999z M8.889,20.633c0.292-0.628,0.739-1.392,1.382-1.947
		c0.492-0.075,1.175-0.135,1.971-0.182c0.802-0.038,1.71-0.063,2.686-0.063c1.935,0,3.673,0.092,4.658,0.245
		c1.289,1.111,1.797,3.062,1.797,3.062H8.473C8.473,21.748,8.592,21.265,8.889,20.633z M9.123,24.213
		c-0.349,0.054-1.167,0.166-2.031-0.53c-0.009-0.012-0.018-0.019-0.034-0.03c-0.285-0.26-0.166-0.801,0.241-0.853
		c0.611-0.072,1.353,0.17,1.986,0.688C9.69,23.817,9.528,24.148,9.123,24.213z M17.897,27.948h-5.874c0,0-1.778,0.124-1.778-1.591
		h9.564C19.811,27.914,17.897,27.948,17.897,27.948z M22.848,23.652c-0.012,0.012-0.025,0.019-0.037,0.03
		c-0.854,0.696-1.678,0.584-2.03,0.53c-0.407-0.064-0.574-0.396-0.162-0.726c0.642-0.518,1.37-0.76,1.99-0.688
		C23.014,22.852,23.134,23.393,22.848,23.652z"/>
	<polygon class="st0" points="26.9,28.612 26.9,14.013 28.674,14.013 28.674,9.37 1.326,9.37 1.326,14.013 3.1,14.013 3.1,28.612 
		0,28.612 0,30 4.489,30 4.489,13.004 25.511,13.004 25.511,30 30,30 30,28.612 	"/>
</g>
</svg>
