<?xml version="1.0" encoding="utf-8"?>
<!-- Generator: Adobe Illustrator 16.0.0, SVG Export Plug-In . SVG Version: 6.00 Build 0)  -->
<!DOCTYPE svg PUBLIC "-//W3C//DTD SVG 1.1//EN" "http://www.w3.org/Graphics/SVG/1.1/DTD/svg11.dtd">
<svg version="1.1" id="Layer_1" xmlns="http://www.w3.org/2000/svg" xmlns:xlink="http://www.w3.org/1999/xlink" x="0px" y="0px"
	 width="30px" height="30px" viewBox="0 0 30 30" style="enable-background:new 0 0 30 30;" xml:space="preserve">
<style type="text/css">
<![CDATA[
	.st0{fill:#4F606C;}
	.st1{enable-background:new    ;}
	.st2{clip-path:url(#SVGID_2_);}
	.st3{clip-path:url(#SVGID_4_);}
	.st4{fill:#FFFFFF;}
	.st5{fill:none;}
	.st6{clip-path:url(#SVGID_6_);fill:#4F606C;}
]]>
</style>
<path class="st0" d="M30,0v30h-0.945v-3.15H0v-0.913h29.055v-9.762H0v-1.086h29.055V5.021H0V3.937h29.055V3.154V0H30z
	 M14.975,22.108c-0.08-0.913-0.099-1.854,0.005-2.762c0.116-1.067,0.725-1.582,1.716-1.6c0.786-0.011,1.57,0.072,2.35,0.104
	c0.236,0.014,1.05,0.008,1.181,0.008c1.143,0,2.288,0.016,3.439-0.008c0.729-0.011,1.462-0.104,2.202-0.114
	c0.477-0.003,0.951,0.073,1.431,0.104c0.453,0.024,0.762,0.284,0.903,0.74c0.432,1.437,0.432,2.882-0.008,4.316
	c-0.159,0.506-0.524,0.743-0.982,0.743c-1.121,0.016-2.241-0.018-3.37-0.018c-0.533,0.01-1.069,0.056-1.608,0.046
	c-0.648-0.009-1.301-0.046-1.95-0.077c-0.136-0.008-1.055,0.01-1.437,0.064c-0.935,0.138-1.879,0.191-2.803-0.072
	C15.373,23.39,15.03,22.799,14.975,22.108z M25.17,19.714c0.013,0.139,0.013,0.279,0.013,0.424c0,0.812,0,1.619,0,2.511
	c0.352,0.074,0.758,0.141,1.161,0.238c0.346,0.079,0.53-0.063,0.627-0.43c0.244-0.941,0.22-1.896,0.121-2.846
	c-0.108-1.041-0.264-1.145-1.182-0.955C25.104,18.814,25.104,18.814,25.17,19.714z M17.591,22.667c0,0,1.24-0.148,1.944-0.538
	c0.095-0.289,0.149-0.816,0.149-1.393c0-0.288-0.008-0.561-0.04-0.797c-0.028-0.239-0.063-0.438-0.109-0.593
	c-0.357-0.189-0.837-0.33-1.231-0.411c-0.396-0.082-0.713-0.121-0.713-0.121V22.667z M16.534,19.104
	c0.025,0.132,0.13,0.184,0.243,0.053c0.175-0.212,0.256-0.448,0.231-0.655c-0.017-0.126-0.199-0.164-0.284-0.073
	c-0.006,0-0.01,0.01-0.01,0.01C16.478,18.728,16.515,18.984,16.534,19.104z M16.546,23.016c0,0,0,0.012,0.004,0.012
	c0.084,0.097,0.265,0.05,0.284-0.068c0.023-0.213-0.057-0.449-0.229-0.661c-0.116-0.131-0.222-0.08-0.248,0.059
	C16.34,22.469,16.305,22.726,16.546,23.016z M14.975,11.085c-0.08-0.92-0.099-1.86,0.005-2.767c0.116-1.07,0.725-1.586,1.716-1.599
	c0.786-0.009,1.57,0.071,2.35,0.099c0.236,0.02,1.05,0.01,1.181,0.01c1.143,0,2.288,0.015,3.439-0.01
	c0.729-0.004,1.462-0.099,2.202-0.107c0.477-0.008,0.951,0.069,1.431,0.104c0.453,0.023,0.762,0.278,0.903,0.732
	c0.432,1.445,0.432,2.884-0.008,4.319c-0.159,0.507-0.524,0.743-0.982,0.743c-1.121,0.014-2.241-0.014-3.37-0.014
	c-0.533,0.003-1.069,0.054-1.608,0.042c-0.648-0.005-1.301-0.042-1.95-0.078c-0.136-0.003-1.055,0.01-1.437,0.063
	c-0.935,0.141-1.879,0.199-2.803-0.066C15.373,12.356,15.03,11.767,14.975,11.085z M25.17,8.684
	c0.013,0.138,0.013,0.283,0.013,0.425c0,0.815,0,1.624,0,2.515c0.352,0.068,0.758,0.141,1.161,0.232
	c0.346,0.078,0.53-0.062,0.627-0.43c0.244-0.941,0.22-1.896,0.121-2.842c-0.108-1.044-0.264-1.148-1.182-0.958
	C25.104,7.786,25.104,7.786,25.17,8.684z M17.591,11.638c0,0,1.24-0.149,1.944-0.542c0.095-0.287,0.149-0.812,0.149-1.387
	c0-0.288-0.008-0.562-0.04-0.802c-0.028-0.238-0.063-0.437-0.109-0.589c-0.357-0.19-0.837-0.329-1.231-0.409
	c-0.396-0.086-0.713-0.123-0.713-0.123V11.638z M16.534,8.075c0.025,0.131,0.13,0.188,0.243,0.053
	c0.175-0.212,0.256-0.443,0.231-0.656c-0.017-0.127-0.199-0.167-0.284-0.072c-0.006,0-0.01,0.01-0.01,0.01
	C16.478,7.697,16.515,7.955,16.534,8.075z M16.546,11.991c0,0,0,0.007,0.004,0.007c0.084,0.093,0.265,0.059,0.284-0.07
	c0.023-0.21-0.057-0.449-0.229-0.656c-0.116-0.136-0.222-0.082-0.248,0.054C16.34,11.439,16.305,11.7,16.546,11.991z M0.141,22.142
	c-0.074-0.914-0.1-1.858,0.006-2.765c0.12-1.063,0.723-1.581,1.719-1.6c0.782-0.005,1.57,0.073,2.35,0.101
	c0.237,0.021,1.047,0.01,1.175,0.01c1.146,0,2.293,0.015,3.44-0.01c0.734-0.004,1.469-0.101,2.204-0.105
	c0.482-0.008,0.954,0.067,1.427,0.102c0.455,0.024,0.77,0.279,0.904,0.732c0.437,1.445,0.437,2.887-0.004,4.317
	c-0.156,0.51-0.521,0.744-0.985,0.744c-1.116,0.015-2.24-0.013-3.363-0.013c-0.535,0.004-1.069,0.053-1.609,0.046
	c-0.653-0.008-1.302-0.046-1.954-0.079c-0.136-0.006-1.052,0.01-1.437,0.061c-0.931,0.146-1.877,0.198-2.805-0.066
	C0.545,23.419,0.199,22.834,0.141,22.142z M10.341,19.742c0.01,0.145,0.01,0.286,0.01,0.427c0.003,0.816,0,1.621,0,2.511
	c0.353,0.07,0.761,0.144,1.166,0.234c0.345,0.082,0.526-0.062,0.622-0.431c0.248-0.937,0.219-1.892,0.124-2.843
	c-0.108-1.037-0.263-1.139-1.186-0.951C10.274,18.847,10.274,18.847,10.341,19.742z M2.757,22.699c0,0,1.24-0.153,1.944-0.542
	c0.101-0.291,0.15-0.817,0.15-1.386c0-0.292-0.004-0.566-0.039-0.795c-0.031-0.249-0.065-0.441-0.111-0.6
	c-0.354-0.188-0.838-0.33-1.226-0.406c-0.403-0.09-0.719-0.124-0.719-0.124V22.699z M1.702,19.134
	c0.024,0.134,0.13,0.189,0.248,0.055c0.173-0.208,0.249-0.445,0.224-0.659c-0.016-0.127-0.193-0.162-0.283-0.071
	c0,0,0,0.009-0.012,0.009C1.646,18.756,1.679,19.017,1.702,19.134z M1.706,23.051c0.011,0,0.015,0.008,0.015,0.008
	c0.085,0.095,0.26,0.055,0.278-0.07c0.024-0.212-0.049-0.446-0.229-0.658c-0.115-0.136-0.218-0.077-0.243,0.054
	C1.507,22.5,1.471,22.762,1.706,23.051z"/>
</svg>
