<?xml version="1.0" encoding="utf-8"?>
<!-- Generator: Adobe Illustrator 16.0.0, SVG Export Plug-In . SVG Version: 6.00 Build 0)  -->
<!DOCTYPE svg PUBLIC "-//W3C//DTD SVG 1.1//EN" "http://www.w3.org/Graphics/SVG/1.1/DTD/svg11.dtd">
<svg version="1.1" id="Layer_1" xmlns="http://www.w3.org/2000/svg" xmlns:xlink="http://www.w3.org/1999/xlink" x="0px" y="0px"
	 width="30px" height="30px" viewBox="0 0 30 30" style="enable-background:new 0 0 30 30;" xml:space="preserve">
<style type="text/css">
<![CDATA[
	.st0{fill:#4F606C;}
	.st1{enable-background:new    ;}
	.st2{clip-path:url(#SVGID_2_);}
	.st3{clip-path:url(#SVGID_4_);}
	.st4{fill:#FFFFFF;}
	.st5{fill:none;}
	.st6{clip-path:url(#SVGID_6_);fill:#4F606C;}
]]>
</style>
<g>
	<path class="st0" d="M15.151,3.909c-6.225,0-12.864,2.15-12.864,6.184c0,1.595,1.083,2.93,2.776,3.899
		c0,1.102,0.429,2.136,1.144,3.035C5.736,21.681,9.19,27.831,15.151,28c5.566,0,9.627-6.084,8.954-10.973
		c0.702-0.904,1.129-1.906,1.129-3.035c1.699-0.993,2.781-2.305,2.781-3.92C28.016,6.06,21.399,3.909,15.151,3.909z M15.151,25.521
		c-3.542-0.124-6.083-3.47-6.258-6.382c1.722,0.865,3.868,1.384,6.258,1.384c2.385,0,4.56-0.519,6.258-1.384
		C21.066,22.607,18.488,25.303,15.151,25.521z M15.151,18.025c-3.448,0-6.083-1.291-7.128-2.759
		c2.155,0.661,4.668,1.009,7.128,1.009s4.974-0.348,7.124-1.009C21.235,16.734,18.605,18.025,15.151,18.025z"/>
</g>
<path class="st4" d="M14.69,14.058c3.162-1.62,2.917-5.208,2.917-5.208c-0.78-0.132-2.917-1.543-2.917-1.543
	s-2.123,1.411-2.917,1.543C11.773,8.871,11.523,12.438,14.69,14.058z"/>
</svg>
