<?xml version="1.0" encoding="utf-8"?>
<!-- Generator: Adobe Illustrator 16.0.0, SVG Export Plug-In . SVG Version: 6.00 Build 0)  -->
<!DOCTYPE svg PUBLIC "-//W3C//DTD SVG 1.1//EN" "http://www.w3.org/Graphics/SVG/1.1/DTD/svg11.dtd">
<svg version="1.1" id="Layer_1" xmlns="http://www.w3.org/2000/svg" xmlns:xlink="http://www.w3.org/1999/xlink" x="0px" y="0px"
	 width="30px" height="30px" viewBox="0 0 30 30" style="enable-background:new 0 0 30 30;" xml:space="preserve">
<style type="text/css">
<![CDATA[
	.st0{fill:#4F606C;}
	.st1{enable-background:new    ;}
	.st2{clip-path:url(#SVGID_2_);}
	.st3{clip-path:url(#SVGID_4_);}
	.st4{fill:#FFFFFF;}
	.st5{fill:none;}
	.st6{clip-path:url(#SVGID_6_);fill:#4F606C;}
]]>
</style>
<path class="st0" d="M27.713,24.382c0.161-2.085-0.071-4.532-1.887-5.616c-0.822-0.655-1.406-1.592-1.406-1.592
	s-1.711-3.52-2.771-3.692C20.274,13.273,17.777,13.13,15,13.13c-2.781,0-5.278,0.144-6.642,0.352
	c-1.072,0.173-2.776,3.692-2.776,3.692S5,18.11,4.17,18.766c-1.816,1.084-2.042,3.531-1.895,5.616
	C2.26,24.794,2.24,25.24,2.24,25.74c0,2.348,0.321,4.26,0.715,4.26h2.93c0.181,0,0.366-0.446,0.49-1.161
	c1.774,0.131,4.462,0.189,8.625,0.189c2.074,0,3.802-0.018,5.207-0.047c1.412-0.042,2.532-0.077,3.413-0.143
	C23.751,29.554,23.925,30,24.115,30h2.925c0.405,0,0.722-1.912,0.722-4.26C27.762,25.24,27.735,24.794,27.713,24.382 M6.519,16.841
	c0.41-0.882,1.035-1.955,1.936-2.735c0.696-0.101,1.65-0.195,2.775-0.255c1.115-0.055,2.401-0.09,3.771-0.09
	c2.716,0,5.154,0.13,6.541,0.345c1.817,1.561,2.532,4.309,2.532,4.309H5.935C5.935,18.414,6.101,17.729,6.519,16.841 M6.846,21.869
	c-0.489,0.07-1.646,0.231-2.854-0.745c-0.012-0.012-0.022-0.03-0.054-0.042c-0.398-0.363-0.226-1.121,0.341-1.197
	c0.856-0.101,1.907,0.239,2.793,0.965C7.644,21.314,7.418,21.779,6.846,21.869 M19.17,27.117h-8.255c0,0-2.491,0.167-2.491-2.241
	h13.434C21.857,27.075,19.17,27.117,19.17,27.117 M26.124,21.082c-0.013,0.012-0.038,0.03-0.05,0.042
	c-1.202,0.977-2.358,0.815-2.853,0.745c-0.567-0.09-0.804-0.555-0.228-1.02c0.9-0.726,1.925-1.065,2.795-0.965
	C26.349,19.961,26.526,20.719,26.124,21.082 M24.872,2.479H12.868C12.136,1.013,10.629,0,8.859,0c-2.479,0-4.48,2.001-4.48,4.48
	c0,2.478,2.001,4.479,4.48,4.479c1.77,0,3.305-1.042,4.031-2.549h1.676l0.773-0.703h1.306l0.584-0.894h1.321l0.382,0.805h1.597
	l0.637-0.805h1.561l0.639,0.487l0.584-0.487h1.042l0.63-0.572V3.33C25.371,3.038,25.104,2.759,24.872,2.479z M7.137,5.492
	c-0.589,0-1.036-0.471-1.036-1.037c0-0.565,0.471-1.041,1.036-1.041c0.56,0,1.036,0.476,1.036,1.041
	C8.173,5.021,7.696,5.492,7.137,5.492z"/>
</svg>
